<?xml version="1.0" encoding="UTF-8"?>
<svg version="1.1" xmlns="http://www.w3.org/2000/svg" width="1024" height="1024">
<path d="M0 0 C337.92 0 675.84 0 1024 0 C1024 337.92 1024 675.84 1024 1024 C686.08 1024 348.16 1024 0 1024 C0 686.08 0 348.16 0 0 Z " fill="#0C0C0C" transform="translate(0,0)"/>
<path d="M0 0 C31.68 0 63.36 0 96 0 C97.85696553 4.33291957 99.49000316 8.24851838 100.85913086 12.68579102 C101.36377617 14.31050827 101.36377617 14.31050827 101.87861633 15.9680481 C102.4162989 17.71829788 102.4162989 17.71829788 102.96484375 19.50390625 C103.55590149 21.40937283 104.1469666 23.31483715 104.73831081 25.22021484 C105.36985021 27.25701413 105.99972589 29.29432168 106.62921143 31.33175659 C108.87305787 38.59185831 111.13268801 45.84705063 113.39453125 53.1015625 C113.626847 53.84689428 113.85916275 54.59222607 114.09851837 55.36014366 C119.00313445 71.08650679 124.0457891 86.76681149 129.125 102.4375 C130.79924416 107.60512348 132.47257341 112.77304257 134.14453125 117.94140625 C134.3493512 118.57450148 134.55417114 119.2075967 134.76519775 119.85987663 C139.17973215 133.51101911 143.50519111 147.18971465 147.8125 160.875 C154.59262477 182.41304686 161.43415393 203.93066643 168.3125 225.4375 C168.55474304 226.19495262 168.79698608 226.95240524 169.04656982 227.73281097 C169.53615125 229.26364833 170.02573458 230.79448507 170.51531982 232.3253212 C171.73946717 236.15305081 172.96351745 239.98081144 174.1875 243.80859375 C174.55110626 244.94564507 174.55110626 244.94564507 174.92205811 246.10566711 C178.45750167 257.16249408 181.98334457 268.22233962 185.5 279.28515625 C185.7221562 279.98401255 185.9443124 280.68286884 186.17320061 281.4029026 C187.28225195 284.89192316 188.39114412 288.38099429 189.49996948 291.87008667 C198.58725485 320.46413509 207.74000166 349.03648313 216.93774414 377.59521484 C222.86205435 395.99182259 228.78393622 414.38931259 234.66040039 432.80126953 C235.27678647 434.73066638 235.89435318 436.65968634 236.51293945 438.58837891 C237.42931573 441.44607867 238.34202327 444.30492627 239.25390625 447.1640625 C239.53190567 448.02834869 239.80990509 448.89263489 240.09632874 449.78311157 C242 455.77192135 242 455.77192135 242 458 C253.27617041 457.93834051 264.55211789 457.86092044 275.82804585 457.76428509 C281.06593043 457.71987198 286.30374241 457.68055492 291.54174805 457.65356445 C296.61236409 457.62723765 301.68269615 457.58663681 306.75313377 457.53681374 C308.67161671 457.5203409 310.59014854 457.50870649 312.50869179 457.50238609 C339.5374723 457.40448156 367.16071093 453.76728671 387.2734375 433.890625 C403.31477844 416.88404578 408.53785525 395.53132949 408.21484375 372.671875 C407.55956635 352.82633101 399.49794529 333.62980486 385 320 C377.31836014 313.81529509 369.33943106 309.28633666 360 306 C359.22785156 305.70480469 358.45570313 305.40960937 357.66015625 305.10546875 C343.6356469 300.23884414 327.63726569 300.68790067 312.9609375 300.5859375 C311.21545566 300.56716037 309.46998227 300.54758251 307.72451782 300.5272522 C303.1972764 300.47661446 298.67000575 300.43662989 294.14263916 300.39910889 C288.67477245 300.35147834 283.2070428 300.2901827 277.73928833 300.23126221 C269.49291633 300.14388694 261.24655932 300.07352634 253 300 C253 320.13 253 340.26 253 361 C250.31818909 358.31818909 249.67477801 355.3003225 248.6015625 351.7578125 C248.37075989 351.01535278 248.13995728 350.27289307 247.90216064 349.50793457 C247.40128598 347.89566492 246.90306327 346.28256959 246.40716553 344.66876221 C245.07209201 340.32683018 243.71602537 335.99148042 242.359375 331.65625 C241.94164322 330.31997055 241.94164322 330.31997055 241.51547241 328.95669556 C238.74945195 320.14071039 235.82535953 311.38065402 232.875 302.625 C228.63457152 290.01940936 224.56367528 277.3725374 220.63037109 264.66796875 C217.98652912 256.13147935 215.26837787 247.62201866 212.5 239.125 C205.01204199 216.06257546 197.92590091 192.87179255 190.76435089 169.70649242 C189.41567498 165.34399662 188.06622498 160.98174101 186.71630859 156.61962891 C182.10846046 141.72979835 177.50566118 126.83841633 172.90899658 111.94512939 C172.06821805 109.22102501 171.22723449 106.496984 170.38623047 103.77294922 C166.91244334 92.51888705 163.4509619 81.26108202 160 70 C159.47351868 68.28200195 159.47351868 68.28200195 158.93640137 66.52929688 C156.50969737 58.6086506 154.0859038 50.68711947 151.6647644 42.76477051 C150.85435446 40.11311145 150.04323298 37.46167174 149.23147583 34.8104248 C148.0885707 31.07733468 146.94846358 27.34339311 145.80859375 23.609375 C145.29841202 21.94455078 145.29841202 21.94455078 144.77792358 20.24609375 C144.45603058 19.1900293 144.13413757 18.13396484 143.80249023 17.04589844 C143.52557846 16.13982849 143.24866669 15.23375854 142.96336365 14.30023193 C141.57709431 9.55123569 140.29071296 4.77572163 139 0 C165.62674325 -0.07029642 192.25347245 -0.12308881 218.88029003 -0.15543652 C231.24550174 -0.17085994 243.61065555 -0.19186228 255.97583008 -0.22631836 C266.76199377 -0.25635995 277.54811551 -0.27560782 288.33431989 -0.28226548 C294.03763708 -0.28615289 299.7408343 -0.29519292 305.44411278 -0.31719017 C310.82933246 -0.33778933 316.21438455 -0.34378726 321.59963989 -0.33932304 C323.55976083 -0.3401379 325.51988829 -0.34596226 327.47997475 -0.35761642 C365.71532504 -0.57350196 402.70150582 9.48195668 432 35 C433.44632813 36.22976563 433.44632813 36.22976563 434.921875 37.484375 C460.2985382 59.52306831 474.39493223 91.8765113 477.6875 124.9375 C477.81456503 126.95702285 477.91711801 128.97818185 478 131 C478.07927734 132.81951172 478.07927734 132.81951172 478.16015625 134.67578125 C479.18297197 170.3825402 468.62680348 203.20048828 444.47265625 229.78125 C434.98132363 239.70464035 423.91714016 247.24512332 412 254 C413.02738281 254.43570313 414.05476562 254.87140625 415.11328125 255.3203125 C450.46839066 270.44620273 476.33489737 293.89194224 491 330 C501.12822083 357.4380468 503.09446677 391.48827506 496 420 C495.80132324 420.82773926 495.60264648 421.65547852 495.39794922 422.50830078 C486.08423931 460.39800751 464.14159092 492.11636432 431 513 C430.34563965 513.41330566 429.6912793 513.82661133 429.01708984 514.25244141 C414.80252493 523.0655431 399.43253776 529.04748213 383.3125 533.375 C382.43585693 533.61371826 381.55921387 533.85243652 380.65600586 534.09838867 C366.13536978 537.77273284 351.43918683 538.29474246 336.54663086 538.22705078 C334.77074693 538.22648489 332.99486254 538.22680669 331.21897888 538.22793579 C326.45563239 538.22850337 321.69238917 538.21684678 316.92906642 538.20278788 C311.92965025 538.19018001 306.93023101 538.18910217 301.93080139 538.18673706 C292.48944813 538.18055157 283.04814188 538.16418093 273.6068092 538.14403808 C262.84725507 538.1215872 252.08769855 538.11066267 241.32812679 538.10064721 C219.21872508 538.0798117 197.10936552 538.04469348 175 538 C172.95642972 531.33901036 170.91420116 524.67761036 168.87283325 518.01594543 C168.18062526 515.75757398 167.48812861 513.49929097 166.7953186 511.24110413 C161.71314884 494.6750131 156.73697892 478.08322873 151.88516235 461.44833374 C149.25926162 452.44699579 146.59689952 443.45637214 143.93878174 434.46450806 C143.08428598 431.57370315 142.2303211 428.68274189 141.37646484 425.79174805 C140.8460539 423.99657457 140.31561882 422.20140822 139.78515625 420.40625 C139.54806442 419.60347122 139.3109726 418.80069244 139.06669617 417.97358704 C138.72442741 416.81587044 138.72442741 416.81587044 138.37524414 415.63476562 C138.15377716 414.88171143 137.93231018 414.12865723 137.70413208 413.3527832 C137.20217909 411.67556015 136.68584581 410.00261265 136.15988159 408.33276367 C135.88467682 407.45144775 135.60947205 406.57013184 135.32592773 405.66210938 C135.07262192 404.86526733 134.8193161 404.06842529 134.55833435 403.24743652 C134 401 134 401 134 397 C76.25 397 18.5 397 -41 397 C-42.98 404.92 -42.98 404.92 -45 413 C-46.40870447 417.67369618 -47.84677618 422.31924374 -49.3515625 426.9609375 C-49.76838334 428.26043114 -50.18467771 429.56009375 -50.60049438 430.85990906 C-51.48134083 433.61069456 -52.36499383 436.36055355 -53.25109863 439.10964966 C-55.60360452 446.40918426 -57.93822626 453.71444951 -60.2734375 461.01953125 C-60.51108826 461.76240072 -60.74873901 462.5052702 -60.99359131 463.27065086 C-64.49871134 474.23075997 -67.95051181 485.20637804 -71.3515625 496.19921875 C-71.56187229 496.8787838 -71.77218208 497.55834885 -71.9888649 498.25850677 C-73.80789271 504.13845417 -75.62302856 510.01959267 -77.42999268 515.90325928 C-78.17511181 518.32899151 -78.92131756 520.75439032 -79.66879272 523.17939758 C-80.34147045 525.36181436 -81.0115546 527.54503282 -81.67861938 529.72917175 C-81.97191132 530.67971939 -82.26520325 531.63026703 -82.56738281 532.60961914 C-82.82158997 533.43869278 -83.07579712 534.26776642 -83.33770752 535.1219635 C-84 537 -84 537 -85 538 C-87.89143151 538.09523905 -90.75892064 538.12553027 -93.65063477 538.11352539 C-95.0114769 538.11374443 -95.0114769 538.11374443 -96.39981079 538.1139679 C-99.41369985 538.11326841 -102.42752793 538.10547434 -105.44140625 538.09765625 C-107.52505967 538.0957922 -109.60871354 538.09436824 -111.69236755 538.09336853 C-117.18823446 538.08954234 -122.68407513 538.0797112 -128.17993164 538.06866455 C-133.78336227 538.0584526 -139.38679713 538.05387137 -144.99023438 538.04882812 C-155.99350114 538.03808902 -166.99674839 538.02101139 -178 538 C-177.33453948 532.9645321 -176.28752216 528.40440204 -174.578125 523.6328125 C-174.05289677 522.12684725 -173.5278417 520.62082159 -173.00292969 519.11474609 C-172.57772034 517.90561554 -172.57772034 517.90561554 -172.1439209 516.67205811 C-165.60296764 498.03485201 -159.46986089 479.26863008 -153.42285919 460.46694183 C-152.29225114 456.95184342 -151.16044474 453.43713082 -150.02880859 449.92236328 C-149.57434834 448.51077356 -149.11989074 447.09918298 -148.66543579 445.68759155 C-148.44079273 444.98984997 -148.21614967 444.29210838 -147.98469925 443.57322311 C-147.53132831 442.16494022 -147.07801767 440.7566379 -146.6247673 439.34831619 C-134.06387691 400.32133282 -121.17930958 361.40193343 -108.18005371 322.51905823 C-106.02501567 316.07213546 -103.8755672 309.62340856 -101.734375 303.171875 C-97.80522627 291.33428025 -93.86523434 279.50099215 -89.82592773 267.70043945 C-75.43423233 225.63595612 -61.4403151 183.43797024 -47.39497018 141.25693721 C-43.82501144 130.53581426 -40.253319 119.81526915 -36.68148267 109.09477162 C-31.98674578 95.00395206 -27.29228485 80.91304068 -22.5995068 66.82156861 C-21.10684394 62.33941508 -19.61400774 57.85731952 -18.12066936 53.37539101 C-15.52722562 45.59131322 -12.93500827 37.80683978 -10.34931415 30.02018368 C-9.22216158 26.62630673 -8.09391773 23.23279309 -6.9655329 19.83932567 C-6.43679283 18.24820012 -5.90858959 16.65689606 -5.38095319 15.06540418 C-4.66129973 12.89482913 -3.93984487 10.72486088 -3.2179718 8.55502319 C-2.81184316 7.3316242 -2.40571451 6.10822521 -1.98727894 4.84775352 C-1 2 -1 2 0 0 Z " fill="#FEFEFE" transform="translate(345,232)"/>
<path d="M0 0 C11.9625 -0.04125 23.925 -0.0825 36.25 -0.125 C40.00407227 -0.14320801 43.75814453 -0.16141602 47.62597656 -0.18017578 C52.26904297 -0.18920898 52.26904297 -0.18920898 54.45404053 -0.19088745 C55.95519197 -0.19392537 57.45633905 -0.20088899 58.9574585 -0.21115112 C81.68083 -0.35850526 102.63340855 4.04660823 119.5625 20.3359375 C134.45977058 36.61789028 136.95636307 55.86595121 136.1953125 76.98193359 C135.15245939 93.0966212 128.25384215 105.68608396 117 117 C116.22269531 117.82951172 116.22269531 117.82951172 115.4296875 118.67578125 C107.15139852 126.71569018 94.13527152 131.83381374 83 134 C82.11972137 134.17240707 81.23944275 134.34481415 80.33248901 134.52244568 C76.61792385 135.0547525 72.9925308 135.13276625 69.25048828 135.11352539 C68.48652678 135.11364593 67.72256527 135.11376646 66.93545341 135.11389065 C64.48037607 135.1131486 62.02537614 135.10555284 59.5703125 135.09765625 C58.04744503 135.09618464 56.52457706 135.09516528 55.00170898 135.09460449 C49.37613157 135.08937705 43.75056501 135.07541578 38.125 135.0625 C25.54375 135.041875 12.9625 135.02125 0 135 C0 90.45 0 45.9 0 0 Z " fill="#0C0C0C" transform="translate(599,316)"/>
<path d="M0 0 C0.66 0 1.32 0 2 0 C2.16776947 0.56879883 2.33553894 1.13759766 2.50839233 1.72363281 C4.40724234 8.16126123 6.30637347 14.59880667 8.20562744 21.03631592 C8.98901244 23.69161241 9.77233208 26.34692817 10.55560303 29.0022583 C15.56235948 45.97511998 20.57443045 62.94639798 25.59476471 79.91524887 C46.29253752 149.87511852 46.29253752 149.87511852 54.58587646 178.31231689 C55.27304919 180.66832038 55.96106425 183.02407837 56.64996338 185.37957764 C57.57415231 188.54130075 58.49478511 191.70403343 59.4140625 194.8671875 C59.68142212 195.78028687 59.94878174 196.69338623 60.22424316 197.63415527 C60.58044739 198.86494812 60.58044739 198.86494812 60.94384766 200.12060547 C61.14966461 200.82780731 61.35548157 201.53500916 61.5675354 202.26364136 C62 204 62 204 62 206 C21.08 206 -19.84 206 -62 206 C-57.50013261 188.00053042 -57.50013261 188.00053042 -55.61254883 181.8203125 C-55.40482346 181.13620678 -55.19709808 180.45210106 -54.983078 179.74726486 C-54.31146412 177.53868455 -53.63431066 175.33184876 -52.95703125 173.125 C-52.47088975 171.5301586 -51.98511581 169.93520513 -51.49967957 168.34014893 C-50.20883715 164.10203804 -48.91323894 159.86539575 -47.61663818 155.62904358 C-46.25790663 151.18681642 -44.903503 146.74327029 -43.54882812 142.29980469 C-41.91072691 136.9274432 -40.27229094 131.55518533 -38.63186646 126.18353271 C-35.47340215 115.84017257 -32.32701001 105.49330111 -29.19921875 95.140625 C-21.57820371 69.92473957 -13.84336982 44.74952736 -5.91015625 19.62988281 C-5.58668213 18.60475586 -5.26320801 17.57962891 -4.92993164 16.5234375 C-4.32743432 14.61518659 -3.72382616 12.70728591 -3.11889648 10.79980469 C-2.85278564 9.95740234 -2.5866748 9.115 -2.3125 8.24707031 C-1.96638672 7.15474091 -1.96638672 7.15474091 -1.61328125 6.04034424 C-1.01175315 4.0391019 -0.48946663 2.03127223 0 0 Z " fill="#0C0C0C" transform="translate(392,339)"/>
<path d="M0 0 C0.495 1.485 0.495 1.485 1 3 C-0.87788672 4.87788672 -3.59165909 4.12008587 -6.08978271 4.12442017 C-6.96515686 4.12082489 -7.84053101 4.11722961 -8.74243164 4.11352539 C-10.11790413 4.11374443 -10.11790413 4.11374443 -11.52116394 4.1139679 C-14.56751836 4.1132684 -17.61381245 4.10547428 -20.66015625 4.09765625 C-22.76622993 4.0957922 -24.87230403 4.09436824 -26.9783783 4.09336853 C-32.53342883 4.08954231 -38.08845341 4.07971114 -43.64349365 4.06866455 C-49.3072474 4.05845267 -54.97100533 4.05387139 -60.63476562 4.04882812 C-71.75652185 4.03808896 -82.87825877 4.0210113 -94 4 C-94.33 3.34 -94.66 2.68 -95 2 C-93.82458145 1.98969254 -92.6491629 1.97938507 -91.43812561 1.96876526 C-80.38655841 1.87121017 -69.33504976 1.76849356 -58.28357792 1.66066074 C-52.6012629 1.60538415 -46.91894278 1.55195671 -41.23657227 1.50268555 C-35.75766291 1.45511169 -30.27881832 1.40277169 -24.79998589 1.34705925 C-22.70472249 1.32660397 -20.60944132 1.30789626 -18.5141468 1.29092598 C-15.59017602 1.26695196 -12.66632889 1.23688822 -9.74243164 1.20532227 C-8.8670575 1.1995668 -7.99168335 1.19381134 -7.08978271 1.18788147 C-3.23309955 1.51637067 -3.23309955 1.51637067 0 0 Z " fill="#020202" transform="translate(261,768)"/>
<path d="M0 0 C1.12018319 3.36054957 0.90181274 4.01723271 -0.21484375 7.23046875 C-0.48876953 8.03291016 -0.76269531 8.83535156 -1.04492188 9.66210938 C-1.48674805 10.91217773 -1.48674805 10.91217773 -1.9375 12.1875 C-2.22818359 13.03248047 -2.51886719 13.87746094 -2.81835938 14.74804688 C-3.53757537 16.83495229 -4.2650343 18.91859994 -5 21 C-5.66 20.67 -6.32 20.34 -7 20 C-6.68817931 18.58318366 -6.37551263 17.16655349 -6.0625 15.75 C-5.88847656 14.96109375 -5.71445312 14.1721875 -5.53515625 13.359375 C-5.052444 11.23121297 -4.53836822 9.11467158 -4 7 C-3.34 7 -2.68 7 -2 7 C-1.855625 6.030625 -1.71125 5.06125 -1.5625 4.0625 C-1 1 -1 1 0 0 Z " fill="#121212" transform="translate(300,363)"/>
<path d="M0 0 C3 1 3 1 3.94921875 2.70703125 C4.19285156 3.40183594 4.43648437 4.09664062 4.6875 4.8125 C4.93886719 5.49957031 5.19023438 6.18664062 5.44921875 6.89453125 C6 9 6 9 6 13 C6.66 13.33 7.32 13.66 8 14 C6.68 14 5.36 14 4 14 C3.32968281 12.0429132 2.66385317 10.08428887 2 8.125 C1.62875 7.03445313 1.2575 5.94390625 0.875 4.8203125 C0 2 0 2 0 0 Z " fill="#131313" transform="translate(582,674)"/>
<path d="M0 0 C1.84790538 3.31016094 2.74541487 6.57173491 3.625 10.25 C3.88539063 11.32765625 4.14578125 12.4053125 4.4140625 13.515625 C4.60742188 14.33546875 4.80078125 15.1553125 5 16 C4.34 16 3.68 16 3 16 C2.33333333 14.33333333 1.66666667 12.66666667 1 11 C0.608125 10.195625 0.21625 9.39125 -0.1875 8.5625 C-1.19675006 5.3794806 -0.74763942 3.21484951 0 0 Z " fill="#161616" transform="translate(478,629)"/>
<path d="M0 0 C1.69368782 3.38737563 2.93778578 6.54576898 4.125 10.125 C4.47820313 11.17945313 4.83140625 12.23390625 5.1953125 13.3203125 C6 16 6 16 6 18 C5.34 18 4.68 18 4 18 C2.4375 15.1875 2.4375 15.1875 1 12 C1.33 11.01 1.66 10.02 2 9 C1.34 9 0.68 9 0 9 C0 6.03 0 3.06 0 0 Z " fill="#161616" transform="translate(532,389)"/>
<path d="M0 0 C1.35814777 4.0744433 -0.05254238 6.81468116 -1.4375 10.6875 C-1.68048828 11.38939453 -1.92347656 12.09128906 -2.17382812 12.81445312 C-2.7744944 14.54578532 -3.38619719 16.27328137 -4 18 C-4.66 17.34 -5.32 16.68 -6 16 C-5.625 12.875 -5.625 12.875 -5 10 C-4.34 10 -3.68 10 -3 10 C-2.87625 8.72125 -2.7525 7.4425 -2.625 6.125 C-2.25 2.25 -2.25 2.25 0 0 Z " fill="#141414" transform="translate(289,396)"/>
<path d="M0 0 C0.33 0.66 0.66 1.32 1 2 C0.34 2 -0.32 2 -1 2 C-0.67 2.99 -0.34 3.98 0 5 C-0.66 5 -1.32 5 -2 5 C-1.9175 6.010625 -1.835 7.02125 -1.75 8.0625 C-2.05731769 12.90275368 -3.3836295 14.99368267 -6 19 C-7.67796037 15.64407925 -5.77756807 12.33768522 -4.6875 8.9375 C-4.46126953 8.19177734 -4.23503906 7.44605469 -4.00195312 6.67773438 C-3.39873047 4.76376277 -2.70531138 2.87874978 -2 1 C-1.34 0.67 -0.68 0.34 0 0 Z " fill="#181718" transform="translate(344,502)"/>
<path d="M0 0 C2 2 2 2 2.1171875 4.05859375 C1.99730469 5.23615234 1.99730469 5.23615234 1.875 6.4375 C1.81054688 7.21996094 1.74609375 8.00242187 1.6796875 8.80859375 C1 11 1 11 -3 14 C-2.01 9.38 -1.02 4.76 0 0 Z " fill="#1A1A1A" transform="translate(840,652)"/>
<path d="M0 0 C0.99 0 1.98 0 3 0 C3.53190541 1.43344 4.05015258 2.87195367 4.5625 4.3125 C4.85253906 5.11300781 5.14257812 5.91351563 5.44140625 6.73828125 C6 9 6 9 5 12 C3 11 3 11 2.1484375 8.49609375 C1.89320313 7.48675781 1.63796875 6.47742188 1.375 5.4375 C1.11460937 4.42558594 0.85421875 3.41367187 0.5859375 2.37109375 C0.39257812 1.58863281 0.19921875 0.80617188 0 0 Z " fill="#131314" transform="translate(462,298)"/>
<path d="M0 0 C0.99 0 1.98 0 3 0 C2.54857225 1.77260631 2.08859477 3.5430368 1.625 5.3125 C1.24214844 6.79169922 1.24214844 6.79169922 0.8515625 8.30078125 C0 11 0 11 -2 14 C-1.43393721 9.30976546 -0.81462495 4.65499974 0 0 Z " fill="#171717" transform="translate(271,445)"/>
<path d="M0 0 C0.66 0 1.32 0 2 0 C2.53190541 1.43344 3.05015258 2.87195367 3.5625 4.3125 C3.85253906 5.11300781 4.14257812 5.91351562 4.44140625 6.73828125 C5 9 5 9 4 12 C3.34 11.67 2.68 11.34 2 11 C1.3671875 8.49609375 1.3671875 8.49609375 0.875 5.4375 C0.70742188 4.42558594 0.53984375 3.41367187 0.3671875 2.37109375 C0.24601563 1.58863281 0.12484375 0.80617188 0 0 Z " fill="#121212" transform="translate(576,532)"/>
<path d="M0 0 C0.33 0.66 0.66 1.32 1 2 C0.34 2 -0.32 2 -1 2 C-0.67 2.99 -0.34 3.98 0 5 C-0.66 5 -1.32 5 -2 5 C-1.67 5.99 -1.34 6.98 -1 8 C-1.4375 10.1875 -1.4375 10.1875 -2 12 C-2.99 12 -3.98 12 -5 12 C-4.55149342 10.18504338 -4.09090429 8.37306866 -3.625 6.5625 C-3.36976563 5.55316406 -3.11453125 4.54382813 -2.8515625 3.50390625 C-2 1 -2 1 0 0 Z " fill="#131212" transform="translate(384,371)"/>
<path d="M0 0 C0.66 0 1.32 0 2 0 C3.47075246 4.41225737 4.36884358 7.48281619 3 12 C2.67 12 2.34 12 2 12 C0.70756464 7.8803623 -0.26252625 4.33168317 0 0 Z " fill="#151515" transform="translate(419,430)"/>
<path d="M0 0 C3.68646141 1.45855647 5.16143971 3.30229045 7.25 6.625 C8.03117188 7.85089844 8.03117188 7.85089844 8.828125 9.1015625 C9.21484375 9.72804688 9.6015625 10.35453125 10 11 C5.39002395 9.46334132 3.53096799 6.98608341 1.25 2.75 C0.8375 1.8425 0.425 0.935 0 0 Z " fill="#141414" transform="translate(716,336)"/>
<path d="M0 0 C0.66 0.33 1.32 0.66 2 1 C0.515 6.445 0.515 6.445 -1 12 C-3 9 -3 9 -2.625 6.3125 C-2.41875 5.549375 -2.2125 4.78625 -2 4 C-1.34 4 -0.68 4 0 4 C0 2.68 0 1.36 0 0 Z " fill="#191818" transform="translate(336,252)"/>
<path d="M0 0 C1 2 1 2 0.25 4.3125 C-1.00173326 7.00372652 -2.42139202 9.48857821 -4 12 C-4.66 11.67 -5.32 11.34 -6 11 C-4.02 7.37 -2.04 3.74 0 0 Z " fill="#040404" transform="translate(831,682)"/>
<path d="M0 0 C0.66 0 1.32 0 2 0 C1.34 2.97 0.68 5.94 0 9 C-0.66 8.34 -1.32 7.68 -2 7 C-1.43181818 1.43181818 -1.43181818 1.43181818 0 0 Z " fill="#121112" transform="translate(358,452)"/>
<path d="M0 0 C1.60031344 3.20062687 0.03173691 5.72271806 -1 9 C-1.66 9 -2.32 9 -3 9 C-3.33 9.99 -3.66 10.98 -4 12 C-4.33 11.34 -4.66 10.68 -5 10 C-4.00390625 7.6171875 -4.00390625 7.6171875 -2.5625 4.875 C-1.85287109 3.50988281 -1.85287109 3.50988281 -1.12890625 2.1171875 C-0.75636719 1.41851562 -0.38382813 0.71984375 0 0 Z " fill="#171717" transform="translate(814,422)"/>
<path d="M0 0 C0.66 0 1.32 0 2 0 C0.515 5.445 0.515 5.445 -1 11 C-1.66 10.67 -2.32 10.34 -3 10 C-2.21302675 6.58978257 -1.12880057 3.31114834 0 0 Z " fill="#141414" transform="translate(193,683)"/>
<path d="M0 0 C0.99 0 1.98 0 3 0 C3.66 2.97 4.32 5.94 5 9 C4.01 8.67 3.02 8.34 2 8 C1.26953125 6.15234375 1.26953125 6.15234375 0.8125 3.9375 C0.65394531 3.20402344 0.49539063 2.47054687 0.33203125 1.71484375 C0.22246094 1.14894531 0.11289062 0.58304688 0 0 Z " fill="#121212" transform="translate(574,649)"/>
<path d="M0 0 C1.15957207 3.47871621 0.77456651 4.34219645 -0.4375 7.6875 C-0.72496094 8.49574219 -1.01242187 9.30398438 -1.30859375 10.13671875 C-1.65083984 11.05904297 -1.65083984 11.05904297 -2 12 C-2.33 12 -2.66 12 -3 12 C-3 9.36 -3 6.72 -3 4 C-2.34 4 -1.68 4 -1 4 C-0.67 2.68 -0.34 1.36 0 0 Z " fill="#171717" transform="translate(278,429)"/>
<path d="M0 0 C0.66 0 1.32 0 2 0 C2.66 2.97 3.32 5.94 4 9 C3.34 9 2.68 9 2 9 C2 8.01 2 7.02 2 6 C1.34 6 0.68 6 0 6 C0 4.02 0 2.04 0 0 Z " fill="#131313" transform="translate(444,515)"/>
<path d="M0 0 C0.66 0.33 1.32 0.66 2 1 C-0.475 4.465 -0.475 4.465 -3 8 C-3.66 7.67 -4.32 7.34 -5 7 C-5 6.34 -5 5.68 -5 5 C-4.34 4.67 -3.68 4.34 -3 4 C-2.67 3.01 -2.34 2.02 -2 1 C-1.34 0.67 -0.68 0.34 0 0 Z " fill="#131313" transform="translate(725,419)"/>
<path d="M0 0 C0.66 0.33 1.32 0.66 2 1 C1.67 2.65 1.34 4.3 1 6 C0.34 6 -0.32 6 -1 6 C-1 6.99 -1 7.98 -1 9 C-1.66 8.67 -2.32 8.34 -3 8 C-2.01 5.36 -1.02 2.72 0 0 Z " fill="#161616" transform="translate(376,393)"/>
<path d="M0 0 C0.66 0 1.32 0 2 0 C2.33 1.65 2.66 3.3 3 5 C1.35 6.32 -0.3 7.64 -2 9 C-1.34 6.03 -0.68 3.06 0 0 Z " fill="#1A1A1A" transform="translate(392,339)"/>
<path d="M0 0 C0.33 0.66 0.66 1.32 1 2 C-5.0546875 2.9765625 -5.0546875 2.9765625 -7 3 C-7.66 2.34 -8.32 1.68 -9 1 C-5.92677456 0.08941469 -3.19902639 -0.08886184 0 0 Z " fill="#191919" transform="translate(730,765)"/>
<path d="M0 0 C0.33 0.66 0.66 1.32 1 2 C0.34 2 -0.32 2 -1 2 C-1 4.31 -1 6.62 -1 9 C-1.99 9 -2.98 9 -4 9 C-3.71848913 7.68528432 -3.42446661 6.37324233 -3.125 5.0625 C-2.96257812 4.33160156 -2.80015625 3.60070312 -2.6328125 2.84765625 C-2 1 -2 1 0 0 Z " fill="#131313" transform="translate(304,634)"/>
<path d="M0 0 C0.66 0.33 1.32 0.66 2 1 C2 3.97 2 6.94 2 10 C-0.39119721 7.60880279 -0.59712795 6.30355083 -1 3 C-0.67 2.01 -0.34 1.02 0 0 Z " fill="#F6F7F7" transform="translate(596,583)"/>
<path d="M0 0 C0.66 0 1.32 0 2 0 C2 0.99 2 1.98 2 3 C2.66 3 3.32 3 4 3 C4.33 4.65 4.66 6.3 5 8 C4.01 8 3.02 8 2 8 C1.34 5.36 0.68 2.72 0 0 Z " fill="#131213" transform="translate(498,411)"/>
<path d="M0 0 C2 3 2 3 1.625 5.6875 C1.41875 6.450625 1.2125 7.21375 1 8 C-1.35953094 5.64046906 -1.49141413 4.22104383 -2 1 C-1.34 0.67 -0.68 0.34 0 0 Z " fill="#151514" transform="translate(487,660)"/>
<path d="M0 0 C0.66 0 1.32 0 2 0 C2.99 2.64 3.98 5.28 5 8 C4.01 8 3.02 8 2 8 C1.34 5.36 0.68 2.72 0 0 Z " fill="#151414" transform="translate(513,458)"/>
</svg>
